<svg width="200" height="200" viewBox="0 0 200 200" xmlns="http://www.w3.org/2000/svg">
  <!-- 身体 -->
  <ellipse cx="100" cy="140" rx="45" ry="50" fill="#ffffff" stroke="#e0e0e0" stroke-width="2"/>
  
  <!-- 头部 -->
  <circle cx="100" cy="80" r="50" fill="#ffffff" stroke="#e0e0e0" stroke-width="2"/>
  
  <!-- 左耳 -->
  <path d="M 70 50 L 75 25 L 85 40 Z" fill="#ffffff" stroke="#e0e0e0" stroke-width="2"/>
  <path d="M 72 45 L 75 30 L 82 38 Z" fill="#f5f5f5"/>
  
  <!-- 右耳 -->
  <path d="M 130 50 L 125 25 L 115 40 Z" fill="#ffffff" stroke="#e0e0e0" stroke-width="2"/>
  <path d="M 128 45 L 125 30 L 118 38 Z" fill="#f5f5f5"/>
  
  <!-- 左眼 -->
  <ellipse cx="85" cy="75" rx="12" ry="14" fill="#87ceeb"/>
  <ellipse cx="85" cy="75" rx="8" ry="10" fill="#4682b4"/>
  <circle cx="85" cy="75" r="5" fill="#1a1a1a"/>
  <ellipse cx="87" cy="73" rx="2" ry="2" fill="#ffffff" opacity="0.8"/>
  
  <!-- 右眼 -->
  <ellipse cx="115" cy="75" rx="12" ry="14" fill="#87ceeb"/>
  <ellipse cx="115" cy="75" rx="8" ry="10" fill="#4682b4"/>
  <circle cx="115" cy="75" r="5" fill="#1a1a1a"/>
  <ellipse cx="117" cy="73" rx="2" ry="2" fill="#ffffff" opacity="0.8"/>
  
  <!-- 鼻子 -->
  <path d="M 100 88 L 95 95 L 105 95 Z" fill="#ffb6c1"/>
  
  <!-- 嘴巴 -->
  <path d="M 100 95 Q 95 100 90 98" stroke="#ffb6c1" stroke-width="2" fill="none"/>
  <path d="M 100 95 Q 105 100 110 98" stroke="#ffb6c1" stroke-width="2" fill="none"/>
  
  <!-- 左前爪 -->
  <ellipse cx="75" cy="150" rx="12" ry="15" fill="#ffffff" stroke="#e0e0e0" stroke-width="2"/>
  
  <!-- 右前爪 -->
  <ellipse cx="125" cy="150" rx="12" ry="15" fill="#ffffff" stroke="#e0e0e0" stroke-width="2"/>
  
  <!-- 尾巴 -->
  <path d="M 145 120 Q 160 100 165 80 Q 170 100 155 120" fill="#ffffff" stroke="#e0e0e0" stroke-width="2"/>
  
  <!-- 身体上的毛色标记 -->
  <ellipse cx="100" cy="130" rx="8" ry="12" fill="#f0f0f0" opacity="0.6"/>
  <ellipse cx="90" cy="120" rx="6" ry="8" fill="#f0f0f0" opacity="0.5"/>
  <ellipse cx="110" cy="125" rx="5" ry="7" fill="#f0f0f0" opacity="0.5"/>
  
  <!-- 脸颊红晕 -->
  <ellipse cx="70" cy="85" rx="8" ry="6" fill="#ffb6c1" opacity="0.3"/>
  <ellipse cx="130" cy="85" rx="8" ry="6" fill="#ffb6c1" opacity="0.3"/>
</svg>

